<?xml version="1.0" encoding="UTF-8" standalone="no"?>
<!DOCTYPE svg PUBLIC "-//W3C//DTD SVG 1.1//EN" "http://www.w3.org/Graphics/SVG/1.1/DTD/svg11.dtd">
<svg xmlns="http://www.w3.org/2000/svg" version="1.1" viewBox="0.00 0.00 1471.00 1047.00">
<g stroke-width="0.40" fill="none" stroke-linecap="butt">
<path stroke="#7cb2db" d="
  M 969.51 232.69
  L 969.49 444.94
  Q 969.49 445.50 969.07 445.15
  L 726.27 246.62
  Q 724.60 245.26 722.93 246.63
  Q 659.90 298.46 597.80 349.22
  C 582.00 362.13 566.99 375.77 550.89 388.37
  C 530.19 404.57 509.83 421.18 489.39 437.71
  C 488.67 438.29 487.29 439.00 486.51 439.35
  A 0.93 0.93 0.0 0 1 485.19 438.49
  L 487.54 231.71"
/>
<path stroke="#0070a8" d="
  M 487.54 231.71
  Q 487.63 229.83 486.96 228.28"
/>
<path stroke="#7cb5c5" d="
  M 1001.11 261.13
  L 1000.40 469.07
  Q 1000.39 470.26 1001.31 471.01
  L 1104.30 555.18"
/>
<path stroke="#7cb2db" d="
  M 1100.22 589.76
  Q 1099.34 589.12 1099.83 588.05
  A 1.84 1.83 -58.1 0 0 1099.33 585.88
  L 1001.55 504.98
  Q 1000.00 503.69 1000.00 505.71
  C 1000.07 598.95 1000.88 690.76 1001.72 783.25
  Q 1001.73 784.15 1001.98 784.94"
/>
<path stroke="#8a8bb7" d="
  M 966.54 818.09
  L 968.94 814.92
  A 1.12 1.11 63.9 0 0 969.17 814.24
  L 969.49 479.99
  A 3.74 3.70 20.0 0 0 968.14 477.13
  L 727.95 278.37
  Q 727.57 278.06 727.11 278.23
  Q 724.12 279.34 723.45 279.94
  Q 710.73 291.42 697.26 301.99
  C 676.05 318.64 655.92 336.74 634.97 353.73
  Q 633.76 354.71 633.02 354.97
  Q 632.55 355.15 632.17 355.47
  C 618.50 367.08 604.28 378.07 590.77 389.85
  C 568.99 408.85 546.29 427.02 523.99 445.42
  C 512.84 454.61 498.40 465.89 486.09 476.85
  Q 484.79 478.01 484.78 479.75
  C 484.54 517.09 483.81 554.42 483.47 591.75
  Q 482.46 702.64 480.99 814.01"
/>
<path stroke="#7cb5c5" d="
  M 470.71 805.53
  Q 468.23 800.94 465.40 801.27"
/>
<path stroke="#7cb2db" d="
  M 455.57 791.67
  Q 456.93 734.12 457.62 661.56
  C 458.15 606.20 457.37 565.02 457.55 502.28
  Q 457.55 501.67 457.06 502.03
  Q 452.40 505.37 450.07 507.32
  Q 401.49 547.86 352.88 588.35"
/>
<path stroke="#7cb5c5" d="
  M 347.20 553.96
  L 456.43 465.54
  A 3.46 3.45 -19.4 0 0 457.71 462.88
  L 459.30 252.88"
/>
<path stroke="#7cb5c5" d="
  M 464.77 247.87
  Q 468.16 247.14 470.73 244.65
  C 475.10 240.42 478.91 239.16 481.66 233.09"
/>
<path stroke="#7cb5c5" d="
  M 487.54 231.71
  L 485.28 231.50
  Q 484.76 231.45 484.45 231.86
  Q 483.49 233.10 481.41 232.91"
/>
<path stroke="#8a8bb7" d="
  M 809.69 894.44
  L 812.76 655.25
  Q 812.78 654.21 811.73 654.22
  C 757.25 654.72 702.24 653.70 647.87 653.74
  Q 647.24 653.74 647.25 654.37
  C 647.88 734.78 649.13 815.22 648.68 895.63"
/>
<path stroke="#7cb5c5" d="
  M 783.32 899.24
  Q 783.31 898.82 783.53 898.42
  A 1.34 1.29 -32.0 0 0 783.70 897.74
  Q 783.36 817.96 782.77 738.19
  Q 782.57 712.00 781.84 685.81
  Q 781.77 683.38 781.47 680.91
  Q 781.41 680.39 780.89 680.31
  Q 778.73 679.99 775.75 680.00
  Q 743.90 680.14 702.00 679.53
  C 694.70 679.42 685.05 678.90 678.00 680.64
  A 0.82 0.82 0.0 0 0 677.38 681.45
  Q 678.01 769.34 678.02 857.22
  C 678.03 870.30 678.21 883.52 677.67 900.35"
/>
</g>
<path fill="#1d1f76" d="
  M 966.54 818.09
  C 927.29 848.18 885.88 871.41 838.30 886.30
  Q 829.79 888.96 809.69 894.44
  L 812.76 655.25
  Q 812.78 654.21 811.73 654.22
  C 757.25 654.72 702.24 653.70 647.87 653.74
  Q 647.24 653.74 647.25 654.37
  C 647.88 734.78 649.13 815.22 648.68 895.63
  Q 557.07 875.62 484.31 817.44
  Q 483.11 816.47 480.99 814.01
  Q 482.46 702.64 483.47 591.75
  C 483.81 554.42 484.54 517.09 484.78 479.75
  Q 484.79 478.01 486.09 476.85
  C 498.40 465.89 512.84 454.61 523.99 445.42
  C 546.29 427.02 568.99 408.85 590.77 389.85
  C 604.28 378.07 618.50 367.08 632.17 355.47
  Q 632.55 355.15 633.02 354.97
  Q 633.76 354.71 634.97 353.73
  C 655.92 336.74 676.05 318.64 697.26 301.99
  Q 710.73 291.42 723.45 279.94
  Q 724.12 279.34 727.11 278.23
  Q 727.57 278.06 727.95 278.37
  L 968.14 477.13
  A 3.74 3.70 20.0 0 1 969.49 479.99
  L 969.17 814.24
  A 1.12 1.11 63.9 0 1 968.94 814.92
  L 966.54 818.09
  Z"
/>
<g fill="#f7f7f7">
<path d="
  M 487.54 231.71
  L 485.19 438.49
  A 0.93 0.93 0.0 0 0 486.51 439.35
  C 487.29 439.00 488.67 438.29 489.39 437.71
  C 509.83 421.18 530.19 404.57 550.89 388.37
  C 566.99 375.77 582.00 362.13 597.80 349.22
  Q 659.90 298.46 722.93 246.63
  Q 724.60 245.26 726.27 246.62
  L 969.07 445.15
  Q 969.49 445.50 969.49 444.94
  L 969.51 232.69
  C 972.01 237.08 975.60 238.26 978.57 241.99
  C 982.76 247.26 986.82 252.05 992.77 255.72
  Q 997.21 258.46 1001.11 261.13
  L 1000.40 469.07
  Q 1000.39 470.26 1001.31 471.01
  L 1104.30 555.18
  Q 1103.44 572.16 1100.22 589.76
  Q 1099.34 589.12 1099.83 588.05
  A 1.84 1.83 -58.1 0 0 1099.33 585.88
  L 1001.55 504.98
  Q 1000.00 503.69 1000.00 505.71
  C 1000.07 598.95 1000.88 690.76 1001.72 783.25
  Q 1001.73 784.15 1001.98 784.94
  C 998.90 789.03 993.97 792.70 991.32 795.32
  C 984.44 802.14 976.37 812.16 966.54 818.09
  L 968.94 814.92
  A 1.12 1.11 63.9 0 0 969.17 814.24
  L 969.49 479.99
  A 3.74 3.70 20.0 0 0 968.14 477.13
  L 727.95 278.37
  Q 727.57 278.06 727.11 278.23
  Q 724.12 279.34 723.45 279.94
  Q 710.73 291.42 697.26 301.99
  C 676.05 318.64 655.92 336.74 634.97 353.73
  Q 633.76 354.71 633.02 354.97
  Q 632.55 355.15 632.17 355.47
  C 618.50 367.08 604.28 378.07 590.77 389.85
  C 568.99 408.85 546.29 427.02 523.99 445.42
  C 512.84 454.61 498.40 465.89 486.09 476.85
  Q 484.79 478.01 484.78 479.75
  C 484.54 517.09 483.81 554.42 483.47 591.75
  Q 482.46 702.64 480.99 814.01
  Q 475.08 810.09 470.71 805.53
  Q 468.23 800.94 465.40 801.27
  Q 459.14 796.62 455.57 791.67
  Q 456.93 734.12 457.62 661.56
  C 458.15 606.20 457.37 565.02 457.55 502.28
  Q 457.55 501.67 457.06 502.03
  Q 452.40 505.37 450.07 507.32
  Q 401.49 547.86 352.88 588.35
  Q 348.48 570.30 347.20 553.96
  L 456.43 465.54
  A 3.46 3.45 -19.4 0 0 457.71 462.88
  L 459.30 252.88
  L 464.77 247.87
  Q 468.16 247.14 470.73 244.65
  C 475.10 240.42 478.91 239.16 481.66 233.09
  Q 482.95 233.02 481.41 232.91
  Q 483.49 233.10 484.45 231.86
  Q 484.76 231.45 485.28 231.50
  L 487.54 231.71
  Z"
/>
<path d="
  M 809.69 894.44
  C 803.83 897.14 796.32 899.74 789.58 900.01
  C 787.37 900.10 785.81 898.66 783.32 899.24
  Q 783.31 898.82 783.53 898.42
  A 1.34 1.29 -32.0 0 0 783.70 897.74
  Q 783.36 817.96 782.77 738.19
  Q 782.57 712.00 781.84 685.81
  Q 781.77 683.38 781.47 680.91
  Q 781.41 680.39 780.89 680.31
  Q 778.73 679.99 775.75 680.00
  Q 743.90 680.14 702.00 679.53
  C 694.70 679.42 685.05 678.90 678.00 680.64
  A 0.82 0.82 0.0 0 0 677.38 681.45
  Q 678.01 769.34 678.02 857.22
  C 678.03 870.30 678.21 883.52 677.67 900.35
  Q 676.29 899.36 674.05 899.49
  C 666.19 899.96 656.22 897.45 648.68 895.63
  C 649.13 815.22 647.88 734.78 647.25 654.37
  Q 647.24 653.74 647.87 653.74
  C 702.24 653.70 757.25 654.72 811.73 654.22
  Q 812.78 654.21 812.76 655.25
  L 809.69 894.44
  Z"
/>
</g>
<g fill="#006cbe">
<path d="
  M 969.51 232.69
  L 969.49 444.94
  Q 969.49 445.50 969.07 445.15
  L 726.27 246.62
  Q 724.60 245.26 722.93 246.63
  Q 659.90 298.46 597.80 349.22
  C 582.00 362.13 566.99 375.77 550.89 388.37
  C 530.19 404.57 509.83 421.18 489.39 437.71
  C 488.67 438.29 487.29 439.00 486.51 439.35
  A 0.93 0.93 0.0 0 1 485.19 438.49
  L 487.54 231.71
  Q 487.63 229.83 486.96 228.28
  Q 567.10 164.68 667.93 148.06
  Q 676.46 146.65 687.76 145.57
  C 698.72 144.51 709.95 143.28 720.69 143.30
  Q 858.45 143.62 966.26 228.68
  Q 968.96 230.81 969.51 232.69
  Z"
/>
<path d="
  M 455.57 791.67
  C 415.43 749.30 385.27 702.71 365.74 647.54
  C 359.05 628.64 356.29 608.51 352.88 588.35
  Q 401.49 547.86 450.07 507.32
  Q 452.40 505.37 457.06 502.03
  Q 457.55 501.67 457.55 502.28
  C 457.37 565.02 458.15 606.20 457.62 661.56
  Q 456.93 734.12 455.57 791.67
  Z"
/>
<path d="
  M 1100.22 589.76
  C 1087.35 663.01 1052.55 730.28 1001.98 784.94
  Q 1001.73 784.15 1001.72 783.25
  C 1000.88 690.76 1000.07 598.95 1000.00 505.71
  Q 1000.00 503.69 1001.55 504.98
  L 1099.33 585.88
  A 1.84 1.83 -58.1 0 1 1099.83 588.05
  Q 1099.34 589.12 1100.22 589.76
  Z"
/>
</g>
<g fill="#007392">
<path d="
  M 486.96 228.28
  Q 487.63 229.83 487.54 231.71
  L 485.28 231.50
  Q 484.76 231.45 484.45 231.86
  Q 483.49 233.10 481.41 232.91
  Q 486.08 230.63 486.96 228.28
  Z"
/>
<path d="
  M 481.66 233.09
  C 478.91 239.16 475.10 240.42 470.73 244.65
  Q 468.16 247.14 464.77 247.87
  Q 472.89 239.71 481.66 233.09
  Z"
/>
<path d="
  M 459.30 252.88
  L 457.71 462.88
  A 3.46 3.45 -19.4 0 1 456.43 465.54
  L 347.20 553.96
  Q 346.60 549.49 346.43 546.73
  Q 340.05 439.69 390.46 345.45
  Q 418.12 293.74 459.30 252.88
  Z"
/>
<path d="
  M 1001.11 261.13
  C 1050.61 314.04 1085.50 379.11 1098.44 450.06
  Q 1107.86 501.78 1104.30 555.18
  L 1001.31 471.01
  Q 1000.39 470.26 1000.40 469.07
  L 1001.11 261.13
  Z"
/>
<path d="
  M 783.32 899.24
  Q 730.18 906.81 677.67 900.35
  C 678.21 883.52 678.03 870.30 678.02 857.22
  Q 678.01 769.34 677.38 681.45
  A 0.82 0.82 0.0 0 1 678.00 680.64
  C 685.05 678.90 694.70 679.42 702.00 679.53
  Q 743.90 680.14 775.75 680.00
  Q 778.73 679.99 780.89 680.31
  Q 781.41 680.39 781.47 680.91
  Q 781.77 683.38 781.84 685.81
  Q 782.57 712.00 782.77 738.19
  Q 783.36 817.96 783.70 897.74
  A 1.34 1.29 -32.0 0 1 783.53 898.42
  Q 783.31 898.82 783.32 899.24
  Z"
/>
<path d="
  M 470.71 805.53
  L 465.40 801.27
  Q 468.23 800.94 470.71 805.53
  Z"
/>
</g>
</svg>
